<svg width="20" height="20" viewBox="0 0 20 20" fill="none" xmlns="http://www.w3.org/2000/svg">
<path d="M0.656267 9.81295C0.656267 9.81295 0.687517 8.81295 0.656267 8.37545C0.625017 7.9692 0.875017 8.0942 1.15627 7.87545C1.43752 7.6567 1.75002 7.18795 1.93752 7.37545C2.09377 7.56295 2.50002 7.7817 2.71877 7.06295C2.93752 6.3442 3.12502 6.56295 3.28127 6.43795C3.43752 6.31295 3.84377 6.56295 4.03127 6.25045C4.21877 5.93795 4.06252 5.8442 4.50002 5.56295C4.93752 5.2817 5.25002 4.93795 5.62502 4.93795C6.00002 4.93795 6.78127 4.62545 6.96877 4.06295C7.15627 3.50045 7.40627 3.5317 7.62502 3.4067C7.84377 3.2817 8.00002 3.00045 8.65627 3.00045C9.31252 3.00045 13.5625 2.4067 18.4375 5.00045C18.4375 5.00045 19.0313 5.31295 19.2188 5.43795C19.375 5.56295 19.4063 5.50045 19.4375 6.7817C19.4688 8.0942 19.3438 12.4692 19.3438 13.563C19.3438 14.313 19.2188 14.2192 18.9063 14.2505C18.9063 14.2505 14.5313 14.9067 13.875 15.0005C13.2188 15.0942 13.1563 15.063 12.9375 14.9067C12.75 14.7505 12.1563 14.7505 11.875 15.063C11.5938 15.3755 11.7813 15.3755 11.25 15.4067C10.7188 15.4692 8.12502 15.8442 7.59377 15.938C7.03127 16.0317 6.81252 15.563 6.21877 15.563C5.59377 15.5942 5.25002 16.2505 5.03127 16.2817C4.81252 16.3442 1.53127 16.813 1.25002 16.8442C0.906267 16.9692 0.656267 17.188 0.656267 16.8755C0.656267 16.563 0.593767 15.8755 0.750017 15.813C0.906267 15.7505 1.06252 15.563 1.06252 15.2817C1.06252 14.7817 0.750017 14.8442 0.750017 13.8442C0.750017 12.8442 0.718767 11.8442 0.812517 11.7505C0.812517 11.7505 1.21877 11.5005 1.21877 10.9067C1.15627 10.1567 0.656267 10.2505 0.656267 9.81295Z" fill="#FFCE31"/>
<path d="M0.656268 8.5942C0.562518 7.93795 0.843768 8.12545 1.12502 7.87545C1.40627 7.6567 1.71877 7.18795 1.90627 7.37545C2.06252 7.56295 2.46877 7.7817 2.68752 7.06295C2.90627 6.3442 3.09377 6.56295 3.25002 6.43795C3.40627 6.31295 3.81252 6.56295 4.00002 6.25045C4.18752 5.93795 4.03127 5.8442 4.46877 5.56295C4.90627 5.2817 5.21877 4.93795 5.59377 4.93795C5.96877 4.93795 6.75002 4.62545 6.93752 4.06295C7.12502 3.50045 7.37502 3.5317 7.59377 3.4067C7.81252 3.2817 7.96877 3.00045 8.62502 3.00045C9.28127 3.00045 13.5313 2.4067 18.4063 5.00045C18.4063 5.00045 19 5.31295 19.1875 5.43795C19.2188 5.43795 19.4688 5.75045 19.0313 5.8442C17.8125 6.12545 15.1563 6.5942 12.1875 7.06295C12.0938 7.0942 11.75 6.75045 11.6563 6.75045C11.5 6.7817 11.5938 7.1567 11.4688 7.18795C6.34377 8.00045 0.687518 8.81295 0.656268 8.5942Z" fill="#FFEC40"/>
<path d="M1.12499 8.59399C1.40624 8.56274 3.15624 8.28149 3.28124 8.28149C3.59374 8.25024 3.43749 8.06274 3.71874 7.90649C3.96874 7.75024 4.46874 8.06274 4.65624 8.03149C4.84374 8.00024 9.53124 7.31274 10.0312 7.25024C10.5312 7.18774 10.8125 7.12524 10.7187 7.00024C10.625 6.87524 10.4062 6.50024 11.2187 6.50024C12.0312 6.50024 12.0312 6.75024 12.0937 6.81274C12.1562 6.90649 12.2187 6.90649 12.4375 6.84399C12.6875 6.81274 14 6.65649 14 6.56274C14 6.46899 14.125 6.31274 14.5312 6.37524C14.9375 6.43774 14.8437 6.53149 14.7187 6.68774C14.5937 6.84399 14.5312 6.96899 14.6562 7.15649C14.7812 7.34399 14.0937 7.06274 14.0312 6.84399C13.9687 6.59399 12.5312 7.03149 12.2187 7.03149C11.9062 7.03149 11.8437 6.90649 11.75 6.81274C11.6562 6.71899 11.5312 7.18774 11.8437 7.28149C12.1562 7.40649 11.5625 7.71899 11.2812 7.62524C11 7.53149 11 7.18774 10.6875 7.25024C10.375 7.31274 5.03124 8.21899 4.78124 8.21899C4.53124 8.21899 4.21874 8.15649 4.03124 8.34399C3.84374 8.53149 2.93749 8.50024 2.40624 8.53149C1.84374 8.68774 0.218738 8.75024 1.12499 8.59399ZM19.1562 5.46899C19 5.34399 18.375 5.03149 18.375 5.03149C16.3125 3.93774 14.3437 3.40649 12.7187 3.15649C12.875 3.18774 16.2812 4.12524 17.625 4.93774C18.5625 5.50024 18.5937 5.56274 18.4687 5.75024C18.3437 5.90649 18.0625 5.90649 15.75 6.37524C15.3125 6.46899 15 6.50024 15.0312 6.59399C15.0312 6.68774 15.6875 6.53149 16.375 6.46899C17.0625 6.40649 19 6.00024 19.1562 6.18774C19.2187 6.28149 19.3125 6.96899 19.3437 7.46899V6.81274C19.3437 5.50024 19.3125 5.59399 19.1562 5.46899ZM6.15624 15.6565C6.78124 15.6252 6.99999 16.094 7.53124 16.0315H7.56249C7.43749 16.0002 7.31249 15.9065 7.12499 15.7502C6.49999 15.219 5.81249 15.219 5.56249 15.6565C5.31249 16.094 5.21874 16.219 4.96874 16.4065C5.18749 16.3127 5.53124 15.6565 6.15624 15.6565ZM12.4062 14.5627C11.6562 14.6877 11.5625 15.4065 11.5625 15.4065C11.6562 15.3752 11.6562 15.2815 11.8437 15.094C12.125 14.7815 12.7187 14.7815 12.9062 14.9377C13 15.0315 13.0625 15.0627 13.2187 15.094C12.8437 15.0315 13.0625 14.4065 12.4062 14.5627Z" fill="#D68F00"/>
<path d="M13.3438 15.1252H13.4375C13.4062 15.094 13.375 15.1252 13.3438 15.1252Z" fill="#F2B200"/>
<path d="M1.21875 15.4062C1.25 14.7812 0.75 14.2812 0.75 14.2812C0.84375 14.8125 1.03125 14.8437 1.03125 15.25C1.03125 15.5 0.875 15.6875 0.71875 15.7812C0.6875 15.7812 0.6875 15.8125 0.65625 15.875C0.8125 15.7812 1.21875 15.9375 1.21875 15.4062ZM1.21875 10.1875C0.96875 10.1562 0.8125 10.125 0.71875 10.0625C0.875 10.25 1.15625 10.3437 1.15625 10.875C1.15625 11.4687 0.75 11.7187 0.75 11.7187C0.75 11.75 0.71875 11.7812 0.71875 11.8438C0.84375 11.5938 1.09375 11.5937 1.375 11.3437C1.78125 11 1.8125 10.25 1.21875 10.1875ZM7.125 3.6875C7.0625 3.78125 6.96875 3.875 6.90625 4.09375C6.71875 4.65625 5.9375 4.96875 5.5625 4.96875C5.5 4.96875 5.4375 4.96875 5.375 5C5.75 5.09375 6.15625 5.3125 7 4.5C7.40625 4.09375 6.78125 4.125 7.125 3.6875Z" fill="#D68F00"/>
<path d="M2.8125 14.3755C2.84375 14.438 2.875 14.5317 2.90625 14.5942C3.1875 15.2817 4.75 15.6255 4.8125 14.5942V14.2505C4.3125 14.813 3.34375 14.8442 2.8125 14.3755Z" fill="#FFEC40"/>
<path d="M4.81247 14.2504C4.68747 13.5004 3.90622 13.2192 3.37497 13.3754C2.78122 13.5317 2.65622 13.8129 2.81247 14.3754C3.34372 14.8442 4.31247 14.8129 4.81247 14.2504Z" fill="#D68F00"/>
<path d="M7.125 9.59399C7.15625 9.68774 7.15625 9.78149 7.15625 9.87524C7.15625 10.6565 6.4375 11.2815 5.5625 11.2815C4.90625 11.2815 4.3125 10.9065 4.09375 10.4065C4 10.6565 3.96875 10.9377 3.96875 11.2815C4.09375 12.969 6.65625 12.4377 7.125 11.2815C7.5 10.469 7.53125 9.93774 7.125 9.59399Z" fill="#FFEC40"/>
<path d="M5.59375 11.2814C6.46875 11.2814 7.1875 10.6564 7.1875 9.87519C7.1875 9.78144 7.1875 9.68769 7.15625 9.59394C7 9.43769 6.75 9.34394 6.40625 9.25019C5.59375 9.03144 4.46875 9.40644 4.125 10.4064C4.34375 10.9377 4.90625 11.2814 5.59375 11.2814Z" fill="#D68F00"/>
<path d="M8.96876 14.2815C8.46876 14.2815 8.03126 14.0315 7.75001 13.6565C7.56251 14.2502 7.65626 15.0002 8.81251 15.094C10.1875 15.219 10.7813 13.7815 10.5313 13.0315C10.3125 13.7502 9.68751 14.2815 8.96876 14.2815Z" fill="#FFEC40"/>
<path d="M8.96875 14.2815C9.6875 14.2815 10.3125 13.7503 10.5 13.0315C10.4687 12.969 10.4688 12.9378 10.4375 12.8753C10 12.219 8.625 12.2503 8 13.1565C7.90625 13.2815 7.8125 13.469 7.75 13.6253C8.03125 14.0315 8.46875 14.2815 8.96875 14.2815Z" fill="#D68F00"/>
<path d="M18.4063 12.188C18.375 12.7192 17.875 13.1567 17.2187 13.1567C16.6875 13.1567 16.25 12.8442 16.0938 12.438C16.0625 12.5942 16.0312 12.7817 16.0312 12.9692C16.0625 13.7192 17.1875 14.188 18.1562 13.4067C18.6562 13.0317 18.6563 12.563 18.4063 12.188Z" fill="#FFEC40"/>
<path d="M17.25 13.1565C17.875 13.1565 18.4062 12.719 18.4375 12.1877C18.2187 11.8127 17.75 11.5002 17.375 11.5002C16.6875 11.5002 16.2812 11.9065 16.1562 12.4377C16.2812 12.8752 16.7188 13.1565 17.25 13.1565Z" fill="#D68F00"/>
<path d="M15.125 10.1877V10.2815C15.125 11.1565 14.3125 11.8752 13.2812 11.8752C12.5625 11.8752 11.9375 11.5002 11.625 10.969C11.6875 11.2815 11.8437 11.6252 12.0937 12.0002C12.6562 12.8752 13.75 12.844 14.3438 12.2502C15 11.6252 15.4062 10.8752 15.125 10.1877Z" fill="#FFEC40"/>
<path d="M13.3125 11.8754C14.3125 11.8754 15.1563 11.1566 15.1563 10.2816V10.1879C15.0938 10.0004 14.9688 9.84415 14.7813 9.6879C13.9063 8.90665 12.2813 9.28165 11.875 9.8754C11.6563 10.2191 11.5938 10.5629 11.6875 10.9691C11.9688 11.5004 12.5938 11.8754 13.3125 11.8754Z" fill="#D68F00"/>
<path d="M18.125 7.90649V7.96899C18.125 8.56274 17.5625 9.06274 16.875 9.06274C16.375 9.06274 15.9687 8.81274 15.75 8.43774C15.8125 8.65649 15.9062 8.87524 16.0625 9.12524C16.4375 9.71899 17.1875 9.68774 17.5937 9.28149C18.0312 8.87524 18.3125 8.34399 18.125 7.90649Z" fill="#FFEC40"/>
<path d="M16.875 9.03156C17.5625 9.03156 18.125 8.53156 18.125 7.93781V7.87531C18.0625 7.75031 18 7.62531 17.875 7.53156C17.2812 7.00031 16.1562 7.25031 15.9062 7.65656C15.75 7.87531 15.7187 8.12531 15.7812 8.40656C15.9687 8.78156 16.375 9.03156 16.875 9.03156Z" fill="#D68F00"/>
<path d="M7.21874 5.7815C7.59374 5.7815 7.93749 5.844 8.18749 5.969C8.09374 5.7815 7.87499 5.62525 7.49999 5.43775C6.78124 5.1565 5.56249 5.37525 5.62499 6.37525V6.43775C5.81249 6.06275 6.46874 5.7815 7.21874 5.7815Z" fill="#FFC543"/>
<path d="M7.90625 6.71899C8.1875 6.43774 8.28125 6.18774 8.1875 5.96899C7.90625 5.84399 7.5625 5.78149 7.21875 5.78149C6.46875 5.78149 5.84375 6.06274 5.65625 6.43774C5.75 7.40649 7.15625 7.46899 7.90625 6.71899Z" fill="#D68F00"/>
<path d="M10.7188 4.09415C11 4.09415 11.25 4.15665 11.4375 4.28165C11.375 4.1254 11.25 4.0004 11.0313 3.8129C10.2813 3.21915 9.31251 3.78165 9.37501 4.78165C9.37501 4.84415 9.40626 4.8754 9.40626 4.9379C9.56251 4.46915 10.0938 4.09415 10.7188 4.09415Z" fill="#FFC543"/>
<path d="M11.0312 5.18774C11.4375 4.81274 11.5625 4.56274 11.4375 4.28149C11.2187 4.18774 10.9687 4.09399 10.7187 4.09399C10.0625 4.09399 9.53125 4.43774 9.40625 4.90649C9.5625 5.75024 10.5 5.75024 11.0312 5.18774Z" fill="#D68F00"/>
<path d="M14.9063 4.87515C15.0938 4.87515 15.25 4.9064 15.4062 4.93765C15.375 4.8439 15.3438 4.7814 15.25 4.68765C14.5938 4.0939 13.0625 4.4689 13.0625 5.43765C13.0625 5.6564 13.1875 5.8439 13.375 5.93765C13.4688 5.3439 14.125 4.87515 14.9063 4.87515Z" fill="#FFC543"/>
<path d="M14.5312 6.177C14.75 6.02075 15.125 5.70825 15.0312 5.39575C14.875 5.3645 14.6875 5.33325 14.5312 5.33325C13.75 5.33325 13.0937 5.802 13 6.427C13.375 6.64575 14.0312 6.58325 14.5312 6.177Z" fill="#D68F00"/>
</svg>
