<svg width="20" height="20" viewBox="0 0 20 20" fill="none" xmlns="http://www.w3.org/2000/svg">
<path d="M18.8797 12.3093C18.7235 12.639 16.5953 14.4671 15.2656 15.614C13.9359 16.7609 12.4235 17.7687 12.4235 17.7687L11.2547 17.7L11.4609 7.95776L18.6813 10.3187C18.6813 10.3187 18.8969 10.464 18.9203 10.8078C18.9422 11.1515 19.011 12.0328 18.8797 12.3093Z" fill="#D46F1E"/>
<path d="M1.90004 12.772C1.76254 12.7954 1.51098 12.8173 1.41879 13.322C1.32661 13.8267 1.42036 14.8454 1.78754 15.2126C2.57036 15.9954 3.63754 16.2407 4.46723 16.3251C5.20161 16.4001 5.62036 16.3282 5.82504 16.4454C6.18129 16.6517 6.18911 17.0657 7.11567 17.6048C7.81567 18.0126 9.03442 18.3954 9.88129 18.3954C11.2907 18.3954 12.4204 17.7688 12.4204 17.7688L12.3969 15.8204L11.5719 11.3501L1.90004 12.772Z" fill="#E48216"/>
<path d="M2.84066 14.4452C4.38597 15.0342 6.3016 14.8124 6.3016 14.8124C6.3016 14.8124 6.73753 15.7749 8.27347 16.2795C9.80941 16.7842 11.6891 16.5311 12.9047 15.6842C14.1203 14.8374 16.2063 12.8874 16.9157 12.292C17.625 11.6967 18.6125 10.8014 18.6344 10.5733C18.6563 10.3452 14.6688 7.22485 14.6688 7.22485C14.6688 7.22485 2.12035 12.9405 1.84847 13.117C1.64535 13.2514 1.87816 14.078 2.84066 14.4452Z" fill="#FADFB1"/>
<path d="M2.31255 11.6718C2.31255 11.6718 1.51099 11.7171 1.51099 12.2671C1.51099 12.8171 1.80942 13.2765 2.56567 13.6202C3.32192 13.964 4.95005 14.3999 6.23286 14.6983C7.53286 14.9999 9.51099 16.1202 10.6797 16.2343C11.8204 16.3468 12.7204 15.3624 13.2469 14.8812C13.7735 14.3999 16.3875 12.3827 16.9829 11.7858C17.5782 11.1905 18.8391 9.8374 18.8391 9.8374L10.2204 6.69678L2.31255 11.6718Z" fill="#EC8B7A"/>
<path d="M2.97187 12.5047C2.97187 12.5047 2.65624 12.4906 2.45468 12.4469C2.25312 12.4031 1.89374 12.2594 1.93749 12.4187C1.98124 12.5781 2.31874 12.9125 2.97187 13.2094C3.67656 13.5281 4.58906 13.5891 4.57656 13.5594C4.57656 13.5594 5.03906 13.9266 5.55781 14.0922C6.19062 14.2937 6.85156 14.4828 7.35312 14.5266C7.82968 14.5687 7.91562 14.4734 7.74374 14.3C7.57187 14.1266 7.11093 13.8406 7.11093 13.8406L4.66718 12.3891L2.97187 12.5047ZM8.36249 14.6312C8.34374 14.7937 9.09531 15.1922 9.64218 15.4219C10.1891 15.6516 11.1484 15.9516 11.0937 15.2641C11.0562 14.7937 10.4656 14.7422 9.79999 14.675C9.09999 14.6047 8.37812 14.4984 8.36249 14.6312Z" fill="#D45E51"/>
<path d="M1.97971 8.99692C1.97971 8.99692 1.21721 10.4344 0.959401 10.3766C0.701589 10.3188 0.585964 10.1469 0.470339 10.2907C0.354714 10.4344 0.340651 11.5266 0.945339 11.7C1.55003 11.8735 1.63128 11.6625 1.99065 11.8204C2.35003 11.9782 2.81096 12.2407 2.81096 12.2407C2.81096 12.2407 2.52971 12.4844 2.5719 12.5563C2.61409 12.6282 3.0719 12.8532 3.28753 13.0547C3.50315 13.2563 3.54378 13.4782 4.5219 13.636C5.50003 13.7938 5.73284 13.7829 6.09221 13.7407C6.45159 13.6985 6.59534 13.525 6.59534 13.525C6.59534 13.525 7.11253 14.2157 7.62971 14.2438C8.1469 14.2719 8.29065 14.1 8.46409 14.1C8.63753 14.1 8.37815 14.2719 8.92346 14.2719C9.46878 14.2719 10.0938 14.3219 10.8188 14.5188C11.3297 14.6579 11.8125 15.1766 12.1438 15.2922C12.475 15.4079 12.9625 15.3063 13.1063 15.1485C13.25 14.9907 13.2469 14.611 13.5188 14.325C13.7907 14.0391 14.5 13.675 14.7438 13.4157C14.9875 13.1563 15.1469 12.3454 15.1469 12.3454C15.1469 12.3454 15.4782 12.6047 15.7657 12.5469C16.0532 12.4891 16.3844 11.986 16.6422 11.9438C16.9 11.9016 17.1594 11.8282 17.4047 11.5844C17.65 11.3407 17.5485 10.6938 17.7063 10.5782C17.8641 10.4625 18.4688 10.8219 18.7844 10.736C19.1 10.65 19.4032 10.1891 19.3313 9.88755C19.2594 9.58599 19.1875 9.54224 19.1875 9.37036C19.1875 9.19849 19.375 8.91099 19.1438 8.62349C18.9125 8.33599 14.9735 6.7688 14.9735 6.7688L1.97971 8.99692Z" fill="#B7D019"/>
<path d="M3.28749 11.3828C3.28749 11.3828 3.09999 11.8 3.17187 11.8859C3.24374 11.9718 4.3078 12.8484 4.56562 12.8781C4.82343 12.9078 6.69374 12.8343 6.69374 12.8343L5.88905 11.3828H3.28749ZM10.0437 11.6421C10.0437 11.6421 9.22499 13.439 9.32499 13.5968C9.42499 13.7546 10.2312 13.7843 10.9203 13.9703C11.6094 14.1562 11.8109 14.2578 12.0422 14.2437C12.2734 14.2296 13.2203 13.6968 13.2359 13.525C13.2516 13.3531 12.5031 12.4906 12.5031 12.4906L10.0437 11.6421ZM14.8016 11.0953L14.5141 11.8421C14.5141 11.8421 15.8516 11.9281 16.4547 11.6406C17.0578 11.3531 17.4953 10.3109 17.6828 9.99526C17.9422 9.56089 18.3078 9.18589 18.2781 9.02808C18.2484 8.87026 17.3312 8.26245 17.3312 8.26245L14.8016 11.0953Z" fill="#96A819"/>
<path d="M14.9172 11.2533C14.9172 11.2533 13.4656 11.6267 13.4359 11.7126C13.4062 11.7986 12.0844 13.2501 12.0844 13.2501C12.0844 13.2501 13.0625 13.7251 14.1547 13.1064C15.2469 12.4908 14.9172 11.2533 14.9172 11.2533ZM18.4672 6.97046C18.4672 6.97046 19.2578 7.18608 19.1281 8.16421C18.9766 9.30796 17.0437 9.2564 17.0437 9.2564C17.0437 9.2564 16.5266 7.87671 16.6125 7.80483C16.6984 7.73296 18.4672 6.97046 18.4672 6.97046ZM6.99687 11.3689L5.83281 11.972C5.83281 11.972 6.02031 13.1939 7.96093 13.5251C9.90156 13.8564 10.9797 12.1736 10.9797 12.1736L6.99687 11.3689ZM3.50312 10.1189L2.22343 10.1767C2.22343 10.1767 2.17656 11.0064 2.84218 11.4845C3.67187 12.0798 4.88281 11.8001 4.88281 11.8001L3.50312 10.1189Z" fill="#DC0D2A"/>
<path d="M5.87502 9.85923L3.43127 10.478C3.43127 10.478 4.66721 12.117 5.15627 12.1592C5.64534 12.2014 8.0594 11.6999 8.0594 11.6999L5.87502 9.85923ZM9.55471 12.3311C9.55471 12.3311 11.0656 13.5514 11.7547 13.4952C12.286 13.4514 12.9578 12.5202 13.836 12.0452C14.7141 11.5702 16.0407 11.2217 16.2688 11.0514C16.7203 10.7139 17.3469 8.86704 17.6485 8.43579C17.95 8.00454 18.6985 7.01235 18.7125 6.85454C18.7266 6.69673 18.5828 6.1936 18.5828 6.1936L12.875 10.7217L9.55471 12.3311Z" fill="#FEDF64"/>
<path d="M10.7766 12.1015C10.8484 12.0875 12.2422 12.2453 12.2422 12.2453C12.2422 12.2453 13.3687 11.3734 15.0937 9.94995C16.8187 8.52651 18.4265 6.98901 18.7859 6.36401C18.889 6.18589 18.9344 5.08901 18.939 4.81401C18.9484 4.33589 18.6828 4.24683 18.6828 4.24683L10.9328 9.80151L10.7766 12.1015Z" fill="#D46F1E"/>
<path d="M12.2578 10.1031C12.2578 10.2469 12.3531 12.1531 12.2437 12.2453C11.9844 12.461 9.71404 13.0938 7.78748 12.2172C5.93592 11.375 5.61561 10.6219 5.61561 10.6219C5.61561 10.6219 3.26873 10.8891 1.87811 10.1047C0.987482 9.60158 0.943731 8.62346 0.957794 8.12033C0.971856 7.61721 1.02967 7.14221 1.23123 6.92658C1.43279 6.71096 4.06404 4.51252 4.62498 4.06721C5.18592 3.6219 7.68592 1.78127 8.07498 1.70939C8.46404 1.63752 11.7984 2.2844 12.9187 2.54377C14.039 2.80315 17.3031 3.65002 17.864 3.86564C18.425 4.08127 18.7703 4.21096 18.7844 4.36877C18.7984 4.52658 18.6265 4.77189 18.425 4.94377C18.2234 5.11564 13.8969 4.88596 13.7828 5.67658C13.6687 6.46721 12.2578 10.1031 12.2578 10.1031Z" fill="#E38211"/>
<path d="M8.14687 2.07491C7.71094 2.15147 5.25312 4.08897 4.55937 4.64678C3.86562 5.20459 2.07187 6.66084 1.76719 6.93116C1.4625 7.20147 1.12344 8.19991 2.6125 8.77491C4.10156 9.34991 6.18281 9.07959 6.18281 9.07959C6.18281 9.07959 6.92812 10.5343 8.70469 10.7218C10.4812 10.9093 11.7 10.8405 12.4781 10.214C13.2562 9.58741 15.8453 7.38741 16.4375 6.84678C17.0297 6.30459 18.5484 4.95303 18.5187 4.76553C18.4344 4.22334 14.2719 3.31084 12.4953 2.90459C10.8937 2.53741 8.53594 2.00772 8.14687 2.07491Z" fill="#FADFB1"/>
</svg>
