<svg width="20" height="20" viewBox="0 0 20 20" fill="none" xmlns="http://www.w3.org/2000/svg">
<path d="M16.0812 11.8687L15.4437 10.9124L12.8281 7.71711C12.8281 7.71711 10.4734 6.68899 8.87808 6.74367C7.77808 6.78117 5.64839 6.3968 3.31089 8.3218C1.55933 9.76399 1.19214 11.4312 1.19214 11.4312L2.92495 12.3937L1.60464 13.2734C1.60464 13.2734 3.12339 16.0577 7.32651 16.6015C12.3093 17.2468 14.1343 14.6499 15.2453 13.1984C15.3609 13.0468 16.0812 11.8687 16.0812 11.8687Z" fill="url(#paint0_linear_2276_1917)"/>
<path d="M9.00939 4.31714C8.87814 4.39058 7.98595 5.12808 7.56876 5.65464C7.20001 6.12026 6.80939 6.79839 6.80939 6.79839C6.80939 6.79839 8.78907 6.73589 10.2266 7.22026C11.6641 7.70464 13.2859 8.76401 14.5375 10.2406C15.4984 11.3734 15.7516 11.825 15.7625 12.0328C15.7734 12.2421 14.9703 13.2531 14.0984 14.1265C13.5406 14.6843 12.9906 15.2125 11.5391 16.0468C10.8563 16.439 10.3188 16.575 10.3188 16.575C10.3188 16.575 11.9063 16.8515 12.6828 16.8609C13.5484 16.8718 14.0547 16.8093 14.1125 16.6046C14.1719 16.4 13.2031 15.6656 13.2031 15.6656C13.2031 15.6656 14.2375 14.8296 14.9703 13.9687C15.2609 13.6265 16.0188 12.6593 16.0188 12.6593C16.0188 12.6593 16.8281 13.5015 17.2906 13.8906C17.775 14.2968 18.9188 15.1671 19.0984 15.0937C19.3047 15.0093 18.8641 13.7 18.5703 13.1734C18.2766 12.6453 17.5141 11.9265 17.5141 11.9265C17.5141 11.9265 18.4781 11.1859 18.8297 10.35C19.1813 9.51401 19.45 8.42183 19.2297 8.3187C19.0094 8.21558 17.5609 9.70464 17.2688 9.99839C16.975 10.2921 16.1719 11.2625 16.1719 11.2625C16.1719 11.2625 15.4906 10.5468 15.3297 10.3562C15.1688 10.1656 14.6547 9.52026 14.6547 9.52026C14.6547 9.52026 13.5563 7.28589 11.5891 5.72183C10.2266 4.63901 9.00939 4.31714 9.00939 4.31714Z" fill="#1B65A6"/>
<path d="M7.64531 12.1546C7.64531 12.4187 7.525 13.3015 8.30469 13.8812C9.2125 14.5546 10.5781 14.6687 11.0906 14.6406C11.8781 14.5968 12.2203 14.3906 12.2203 14.3906C12.2203 14.3906 11.4141 13.3781 9.99062 12.689C8.56719 11.9999 7.64531 12.1546 7.64531 12.1546ZM0.826561 11.3734C0.692186 11.6328 0.870311 11.7515 1.31094 11.9562C1.75156 12.1609 2.425 12.4109 2.425 12.4109C2.425 12.4109 2 12.5874 1.77969 12.7328C1.55937 12.8796 1.1625 13.0281 1.26719 13.2906C1.34375 13.4843 1.53125 13.4671 1.88281 13.2765C2.23437 13.0859 3.0125 12.6015 3.02656 12.4109C3.04062 12.2203 2.525 11.9046 2.125 11.6921C1.64062 11.4359 0.979686 11.0765 0.826561 11.3734Z" fill="#1B65A6"/>
<path d="M5.5625 10.7826C5.5625 11.0858 5.37031 11.3436 4.99063 11.3686C4.55 11.3983 4.375 11.0779 4.375 10.7748C4.375 10.4717 4.66094 10.2326 4.93906 10.2061C5.30313 10.1748 5.5625 10.4795 5.5625 10.7826Z" fill="#262D33"/>
<path d="M7.23435 11.0765C7.08591 11.0968 7.02966 11.2812 7.04373 11.5749C7.05779 11.8687 7.13123 12.103 7.08748 12.264C7.04373 12.4249 6.4281 13.2765 6.31091 13.4374C6.19372 13.5984 6.04685 13.8327 6.20779 13.9655C6.36872 14.0984 6.57498 13.9218 6.69216 13.8046C6.80935 13.6874 7.60154 12.6468 7.63123 12.4109C7.66091 12.1765 7.55779 11.6046 7.54372 11.4874C7.5281 11.3702 7.45466 11.0468 7.23435 11.0765ZM7.99685 11.0765C7.98279 11.3265 8.27498 11.3405 8.61247 11.3405C8.92029 11.3405 10.7031 11.4218 11.6703 11.4718C12.7047 11.5265 14.1047 11.7765 14.7234 11.8827C15.0906 11.9452 15.4422 12.0296 15.4422 11.7796C15.4422 11.5421 15.0578 11.5046 14.6797 11.428C14.3609 11.3624 13.3422 11.0874 11.6812 10.9843C10.4359 10.9077 8.75935 10.8562 8.56873 10.8702C8.3781 10.8859 8.01091 10.839 7.99685 11.0765Z" fill="#E0ECF3"/>
<defs>
<linearGradient id="paint0_linear_2276_1917" x1="8.63636" y1="6.73524" x2="8.63636" y2="16.703" gradientUnits="userSpaceOnUse">
<stop offset="0.079" stop-color="#1483BC"/>
<stop offset="0.189" stop-color="#1F8CC2"/>
<stop offset="0.381" stop-color="#3CA4D3"/>
<stop offset="0.585" stop-color="#62C2E8"/>
<stop offset="0.962" stop-color="#99D6EF"/>
</linearGradient>
</defs>
</svg>
