<svg width="20" height="20" viewBox="0 0 20 20" fill="none" xmlns="http://www.w3.org/2000/svg">
<path d="M18.9109 3.50854L0.698445 9.83722C0.698445 9.83722 0.631258 11.2554 0.787508 12.4323C0.943758 13.6092 1.16407 14.2422 1.16407 14.2422C1.16407 14.2422 1.76251 16.9249 5.24532 18.2555C8.72813 19.586 12.2922 18.0757 13.3641 17.4919C14.6516 16.7912 16.3328 15.1749 16.9984 14.3682C17.6641 13.5616 18.9547 11.7347 19.1094 10.5563C19.2641 9.37782 19.4266 7.51563 19.4203 6.33716C19.4094 4.59175 18.9109 3.50854 18.9109 3.50854Z" fill="#FEA8A6"/>
<path d="M10.0141 4.73313C8.97187 4.97282 5.64375 5.3431 4.84531 5.56128C4.04687 5.77946 2.94687 6.20352 2.60312 6.47086C2.04062 6.90875 0.68906 9.13815 0.696872 9.83724C0.709372 11.0526 1.16875 12.5537 1.56875 12.9163C1.85937 13.1806 4.11406 16.3795 7.175 16.401C10.2359 16.4225 16.9797 11.8853 17.2672 11.4935C17.5562 11.1002 18.5562 9.21959 18.8344 8.0319C19.0797 6.9825 19.3906 4.72698 18.8641 3.358C18.4594 2.30399 17.5031 1.33141 16.8516 1.20388C15.5625 0.95344 14.8281 1.19927 14.6281 1.26534C14.4281 1.33141 14.0859 3.37644 13.2312 3.6868C11.9672 4.14466 10.0141 4.73313 10.0141 4.73313Z" fill="#FED5B6"/>
<path d="M13.9359 3.63927C14.8453 3.11073 14.9406 1.18555 14.9406 1.18555C14.9406 1.18555 14.2438 1.2301 13.4672 1.8493C12.6906 2.46849 11.7938 3.5732 11.3516 3.88971C10.9094 4.20622 10.0141 4.73323 10.0141 4.73323C10.0141 4.73323 12.5344 4.45206 13.9359 3.63927ZM14.9938 5.89018C15.4734 7.3406 17.2156 7.79846 17.7109 7.66786C18.2063 7.53573 18.5141 6.46943 18.4734 4.91607C18.4328 3.36271 17.6297 2.49307 16.8797 2.54685C16.2375 2.59141 15.3391 3.20906 15.0047 4.15245C14.8102 4.71531 14.8063 5.32499 14.9938 5.89018ZM12.0609 5.53526C12.2688 5.73961 11.7 6.33883 12.0203 7.27299C12.3422 8.20716 12.8766 8.47143 12.8375 8.74799C12.7984 9.02456 10.575 11.7886 9.00938 12.3679C7.44375 12.9471 3.09844 12.7535 2.30156 10.5779C1.69844 8.93237 2.97188 7.51268 3.30625 7.24687C3.81406 6.84279 4.31719 6.53396 5.0875 6.39107C5.38125 6.33729 7.57813 6.01003 8.87656 5.87789C10.1734 5.74575 11.8203 5.29865 12.0609 5.53526Z" fill="#DC0D28"/>
<path d="M8.36564 6.65389C8.47501 7.15323 6.98595 7.64183 5.83595 8.46998C4.98439 9.08303 4.33595 10.2077 3.60001 9.7606C2.86407 9.31349 3.90157 7.58498 4.29689 7.28537C4.76407 6.93045 8.24533 6.10076 8.36564 6.65389ZM12.4188 3.66701C12.5313 3.91284 13.3563 3.31209 13.7578 2.98175C14.0828 2.71594 14.4766 2.47472 14.2672 2.15206C14.0266 1.78331 13.5985 2.09982 13.1828 2.5331C12.911 2.81735 12.2969 3.40428 12.4188 3.66701Z" fill="#FF5F5D"/>
<path d="M6.26409 13.9473C6.88596 14.1409 6.66877 16.2843 7.1344 16.2643C7.67346 16.2428 7.27971 14.4451 7.77502 14.0118C8.27034 13.577 8.89377 13.6477 9.79065 13.2129C10.6875 12.7781 11.6735 11.9607 12.3688 11.1571C13.0656 10.3535 13.8422 9.44549 14.2031 9.16893C14.5641 8.89237 16.4531 8.33924 17.1078 8.78789C17.7641 9.235 17.5235 11.131 17.5235 11.131C17.5235 11.131 16.2453 13.3834 13.675 14.8784C11.1047 16.3734 9.64221 16.9665 6.51409 16.6146C3.38596 16.2628 1.5094 12.8549 1.5094 12.8549C1.5094 12.8549 2.71565 13.3604 4.07971 13.5801C5.44377 13.7998 5.64534 13.7553 6.26409 13.9473Z" fill="#DC0D28"/>
<path d="M13.6844 4.69473C12.9125 5.15566 12.225 6.01608 12.575 7.16996C12.925 8.32384 14.7406 9.02447 15.936 7.89978C16.9953 6.90415 16.7453 5.74259 16.2594 5.17871C15.7766 4.61637 14.6906 4.09397 13.6844 4.69473Z" fill="white"/>
<path d="M15.3031 5.21083C14.4844 4.80213 13.6453 5.26922 13.3844 5.79315C13.125 6.31708 13.1578 7.05304 13.7766 7.4894C14.4391 7.95802 15.4562 7.72294 15.8109 7.00541C16.1656 6.28789 15.9531 5.53502 15.3031 5.21083Z" fill="#FFA8A7"/>
</svg>
