<svg width="20" height="20" viewBox="0 0 20 20" fill="none" xmlns="http://www.w3.org/2000/svg">
<path d="M7.36874 18.1249L7.74374 15.4299H8.76936L8.36499 18.1249H9.85874L10.2344 15.4299H11.2594L10.8562 18.1249H11.8169C12.06 18.1249 12.4075 18.2612 12.4919 18.5906C12.5131 18.6737 12.4406 18.7449 12.3544 18.7449H5.16686C5.08061 18.7449 5.00811 18.6743 5.02374 18.5893C5.07124 18.3312 5.24936 18.1249 5.65499 18.1249H7.36874Z" fill="#9B9B9B"/>
<path d="M17.3144 1.25H17.6857C17.9377 1.24942 18.1817 1.33827 18.3743 1.50075C18.567 1.66323 18.6957 1.88879 18.7377 2.13729C18.7796 2.38578 18.732 2.6411 18.6033 2.85779C18.4747 3.07448 18.2733 3.23849 18.035 3.32063C18.2721 3.40377 18.4722 3.56806 18.5999 3.78447C18.7275 4.00087 18.7746 4.25544 18.7327 4.50318C18.6908 4.75092 18.5627 4.97588 18.371 5.13828C18.1792 5.30067 17.9363 5.39006 17.685 5.39063C17.9309 5.39045 18.1692 5.47538 18.3595 5.631C18.5498 5.78662 18.6804 6.00332 18.7291 6.2443C18.7778 6.48528 18.7415 6.73568 18.6265 6.95296C18.5115 7.17024 18.3248 7.34101 18.0982 7.43625C18.3049 7.5233 18.4788 7.67338 18.5952 7.86511C18.7116 8.05683 18.7645 8.28041 18.7463 8.50396C18.7282 8.72752 18.6399 8.93964 18.4941 9.11007C18.3483 9.28051 18.1524 9.40057 17.9344 9.45313C18.1591 9.50754 18.3601 9.63363 18.5068 9.81233C18.6536 9.99103 18.7382 10.2126 18.7479 10.4437C18.7575 10.6747 18.6917 10.9026 18.5604 11.093C18.4291 11.2833 18.2394 11.4257 18.02 11.4988C18.2595 11.5788 18.4627 11.7414 18.5934 11.9574C18.7241 12.1735 18.7738 12.4289 18.7337 12.6782C18.6935 12.9275 18.5661 13.1544 18.3741 13.3184C18.1821 13.4824 17.9381 13.5729 17.6857 13.5738H17.7244C17.9964 13.5738 18.2573 13.6818 18.4496 13.8742C18.642 14.0665 18.75 14.3274 18.75 14.5994C18.75 14.8714 18.642 15.1323 18.4496 15.3246C18.2573 15.5169 17.9964 15.625 17.7244 15.625H15.1369V13.5744H17.0507V3.26188H17.3144V1.25Z" fill="#F3AD61"/>
<path d="M1.26935 9.12126V11.5625H3.3106L5.14622 5.76188C5.46872 4.89313 5.8106 3.13501 4.1406 3.13501C2.71497 3.13501 3.0306 4.89563 3.36935 5.76188C3.65247 6.48438 3.67185 7.41188 2.8906 7.51001C1.57247 7.67438 1.27622 8.58063 1.26935 9.12126Z" fill="#F70A8D"/>
<path d="M1.8 4.4657L2.8125 3.7207V5.47883L1.79875 4.71633C1.77929 4.70169 1.76353 4.68271 1.75272 4.6609C1.7419 4.63908 1.73633 4.61505 1.73645 4.5907C1.73657 4.56636 1.74238 4.54238 1.75341 4.52067C1.76445 4.49897 1.7804 4.48015 1.8 4.4657Z" fill="#F9C23C"/>
<path d="M2.68561 3.79883C2.68561 3.71595 2.71853 3.63646 2.77714 3.57786C2.83574 3.51925 2.91523 3.48633 2.99811 3.48633C3.08099 3.48633 3.16047 3.51925 3.21908 3.57786C3.27768 3.63646 3.31061 3.71595 3.31061 3.79883V5.93758C3.31061 6.02046 3.27768 6.09994 3.21908 6.15855C3.16047 6.21715 3.08099 6.25008 2.99811 6.25008C2.91523 6.25008 2.83574 6.21715 2.77714 6.15855C2.71853 6.09994 2.68561 6.02046 2.68561 5.93758V3.79883Z" fill="#FF6DC6"/>
<path d="M4.39435 4.0769C4.39435 4.15978 4.36142 4.23927 4.30282 4.29788C4.24421 4.35648 4.16473 4.3894 4.08185 4.3894C3.99897 4.3894 3.91948 4.35648 3.86088 4.29788C3.80227 4.23927 3.76935 4.15978 3.76935 4.0769C3.76935 3.99402 3.80227 3.91454 3.86088 3.85593C3.91948 3.79733 3.99897 3.7644 4.08185 3.7644C4.16473 3.7644 4.24421 3.79733 4.30282 3.85593C4.36142 3.91454 4.39435 3.99402 4.39435 4.0769Z" fill="#1C1C1C"/>
<path d="M5.05687 15.625C3.775 15.5337 1.25 14.7319 1.25 11.2981C1.25 9.3775 2.72187 8.335 4.16438 7.58937C4.5975 7.365 4.70625 7.23625 4.80188 6.97062C5.33938 5.47625 7.29438 3.125 10.65 3.125C11.3281 3.125 11.9606 3.24125 12.5456 3.44875C12.7537 2.67875 13.6163 2.09 14.0363 1.8175C14.7469 1.3575 16.005 1.25 17.5 1.25V12.0413C17.5 12.555 17.45 13.1475 17.3181 13.7013C17.1294 14.5869 16.7494 15.325 15.9844 15.5525C15.8381 15.5994 15.6781 15.625 15.5037 15.625H5.05687Z" fill="#6D4534"/>
<path d="M13.6575 10.3525C14.6373 11.2497 15.6067 12.1581 16.5656 13.0775C17.3194 13.83 17.1113 14.5588 16.9206 14.8575C16.575 15.3988 15.975 15.625 15.6988 15.625H10.1231C9.97127 15.625 9.81689 15.6225 9.66064 15.6157L13.6575 10.3525Z" fill="#D3883E"/>
<path d="M13.6581 10.3519C13.0854 9.82517 12.5045 9.3074 11.9156 8.79875C10.6631 7.72688 9.38438 7.5 8.80312 7.5C5.88625 7.5 5 10.2344 5 11.2188C5 14.7663 7.51563 15.5288 9.66 15.6156C10.2855 15.575 10.8949 15.4004 11.447 15.1037C11.9992 14.8071 12.4811 14.3952 12.8602 13.8961C13.2393 13.397 13.5068 12.8222 13.6444 12.2107C13.7821 11.5992 13.7868 10.9653 13.6581 10.3519Z" fill="#A56953"/>
</svg>
