<svg width="20" height="20" viewBox="0 0 20 20" fill="none" xmlns="http://www.w3.org/2000/svg">
<path d="M10.8891 10.1249C10.8891 10.1249 10.8313 9.14054 10.7375 8.87179C10.4953 8.18429 10.5156 6.99835 11.5219 7.06867C12.5297 7.13898 12.2953 8.27491 12.0953 8.88429C11.8969 9.49366 11.9906 10.1484 11.9906 10.1484L10.8891 10.1249ZM9.15627 10.1937C9.16721 10.1468 9.09846 9.42023 9.16721 8.81241C9.23596 8.2046 9.56565 7.2546 8.62815 7.09054C7.69065 6.92648 7.2969 8.18741 7.68284 9.06554C8.06877 9.94366 8.08909 10.3687 8.08909 10.3687L9.15627 10.1937Z" fill="#FF9003"/>
<path d="M6.65001 4.17493C7.40001 3.64368 9.00782 3.06712 9.16407 3.36243C9.32032 3.65931 7.82189 4.72024 7.82189 4.72024C7.82189 4.72024 8.24376 5.51712 8.24376 5.73587C8.24376 5.95462 8.25939 6.50149 8.00939 6.68899C7.75939 6.87649 5.94845 8.01556 5.94845 8.01556C5.94845 8.01556 5.93439 8.24368 5.87032 8.42181C5.74532 8.76868 5.55782 8.87493 5.55782 8.87493L5.44845 9.70306L6.05782 11.014L7.22814 15.5421L6.54064 15.9796C6.54064 15.9796 5.43282 15.6827 5.18282 15.6671C4.93282 15.6515 4.4797 15.6046 4.37032 15.6515C4.26095 15.6984 4.2297 15.1046 4.2297 15.1046C4.2297 15.1046 4.9172 14.5734 4.90158 14.4327C4.88595 14.2921 4.44845 14.2812 4.21407 14.2577C3.9797 14.2343 3.38282 14.3281 3.32345 14.2343C3.26407 14.1406 3.27657 13.789 3.51095 13.6843C3.74532 13.5796 4.5422 13.2515 4.55314 13.1577C4.56407 13.064 3.75314 12.8968 3.2297 12.7327C2.72345 12.5734 2.44845 12.4827 2.07032 12.3859C1.79845 12.3156 1.42657 12.3281 1.42657 12.3281L1.98907 11.5906L4.63595 11.8952C4.63595 11.8952 3.39532 10.9343 3.20782 10.7593C3.02032 10.5843 2.84532 10.3968 2.84532 10.3968C2.84532 10.3968 3.0672 10.2452 3.2672 10.2921C3.4672 10.339 4.64845 11.3234 4.64845 11.3234C4.64845 11.3234 4.62501 10.9484 4.71876 10.7843C4.81251 10.6202 4.9172 10.5859 4.9172 10.5859C4.9172 10.5859 5.0922 10.7265 5.15157 10.6437C5.20939 10.5624 4.89376 10.2218 4.77657 9.91712C4.65939 9.61243 4.65939 9.41399 4.65939 9.41399C4.65939 9.41399 4.07345 9.27337 3.9797 8.49993C3.88595 7.72649 4.76407 7.21243 4.76407 7.21243L6.65001 4.17493ZM10.9125 3.39837C10.7953 3.85931 11.8266 4.85462 11.8266 4.85462L11.8031 5.22962C11.8031 5.22962 11.4516 6.14368 11.7094 6.47024C11.9672 6.79837 13.0094 7.07962 13.0094 7.07962L14.2391 8.32024C14.2391 8.32024 14.6141 8.79993 14.7656 8.95306C14.9172 9.10462 14.0516 10.1937 14.0516 10.1937L13.6063 13.7062L13.9813 15.6156L15.8235 15.4406C15.8235 15.4406 15.6906 15.0781 15.6328 14.9015C15.575 14.7265 14.9656 14.1874 14.9656 14.1874C14.9656 14.1874 15.2344 13.8952 15.7031 13.8718C16.1719 13.8484 16.6406 14.0468 16.5813 13.8718C16.5235 13.6968 16.2891 13.3327 16.2891 13.3327L15.2578 12.9234C15.2578 12.9234 15.8078 12.5843 16.1828 12.4437C16.5578 12.3031 17.775 11.9984 17.9391 11.9406C18.1031 11.8827 18.6422 12.0218 18.4656 11.7187C18.2906 11.414 17.3531 11.414 17.3531 11.414L15.3391 11.6015C15.3391 11.6015 15.7485 11.1687 16.1938 10.8515C16.6391 10.5359 17.3641 10.0202 17.3641 10.0202L16.7688 9.84368L15.1531 10.4171C15.1531 10.4171 14.7906 10.6624 14.7906 10.4984C14.7906 10.3343 15.4781 10.0577 15.7125 9.54212C15.8797 9.17337 15.7391 9.01087 15.7391 9.01087C15.7391 9.01087 16.0906 8.83587 16.1141 8.28431C16.1375 7.73431 15.7047 7.14837 15.7047 7.14837L12.2485 3.61399C12.2485 3.61399 11 3.05931 10.9125 3.39837Z" fill="#FA1C1F"/>
<path d="M5.33906 9.00481C4.93437 9.18606 5.07031 9.69231 5.15156 9.91418C5.23281 10.1361 5.47969 10.5939 5.47969 10.5939C5.47969 10.5939 5.24531 11.0501 5.1875 11.2501C5.12969 11.4486 5 12.2689 5.24531 13.0657C5.49062 13.8626 6.04219 15.0689 6.18281 15.2907C6.32344 15.5126 6.79219 16.3564 7.79844 16.8361C8.80469 17.3157 10.0344 17.2986 10.9484 17.2345C12.1187 17.1532 13.2203 16.4376 13.4187 16.1454C13.6172 15.8532 14.0516 15.6298 14.2969 14.7517C14.5422 13.8736 14.7891 12.5501 14.7187 11.6251C14.6484 10.7001 14.3203 10.3017 14.3203 10.3017C14.3203 10.3017 14.7422 10.1032 14.9875 9.77512C15.2328 9.44699 15.3469 9.06418 15.0062 8.93606C14.6672 8.80793 14.1359 9.16574 14.0031 9.34231C13.8 9.61106 13.6875 9.89231 13.6875 9.89231C13.6875 9.89231 11.1219 9.86887 9.94062 9.92668C8.05469 10.0204 7.04844 10.2423 7.04844 10.2423L6.24062 10.2767C6.24062 10.2767 6.20625 8.61731 5.33906 9.00481Z" fill="#FF5F00"/>
<path d="M1.27969 11.1C1.05938 10.9375 1.40469 10.4594 2.00625 10.0532C2.60781 9.64691 2.96719 9.5141 3.23906 9.56098C3.5125 9.60785 4.25469 10.0844 4.58125 10.3032C4.86094 10.4907 5.15938 10.6469 5.16719 10.6938C5.175 10.7407 5.02188 10.7079 4.85469 10.9829C4.76563 11.1313 4.66719 11.4282 4.69063 11.4125C4.71406 11.3969 3.23125 10.4875 3.10625 10.4875C2.98125 10.4875 2.325 10.8266 2.10625 10.9047C1.88906 10.9829 1.45938 11.2329 1.27969 11.1ZM0.0656263 13.4141C0.123439 13.5516 0.385939 13.586 0.878126 13.25C1.37031 12.9141 2.025 12.211 2.15781 12.1735C2.29063 12.136 3.28906 12.3141 3.83594 12.3922C4.38281 12.4704 4.70313 12.5485 4.70313 12.5485L4.66406 11.9079C4.66406 11.9079 3.11875 11.4625 2.59531 11.4C2.07188 11.3375 2.01719 11.2438 1.72813 11.3688C1.43906 11.4938 0.782814 12.2829 0.604689 12.5C0.426564 12.7172 0.00312628 13.2672 0.0656263 13.4141ZM3.22813 13.15C2.88438 13.2204 1.85469 14.0641 1.66719 14.3829C1.47969 14.7032 1.04219 15.725 0.940626 16.1078C0.839064 16.4907 1.06563 16.4985 1.3 16.4047C1.53438 16.311 2.12813 15.3969 2.2375 15.2422C2.34688 15.086 2.85469 14.6797 3.01094 14.5391C3.16719 14.3985 3.63594 13.9922 3.74531 13.9688C3.85469 13.9454 4.99375 14.0704 5.04844 14.0079C5.10313 13.9454 5.025 13.6797 4.93906 13.5313C4.85313 13.3829 4.56875 13.2157 4.56875 13.2157C4.56875 13.2157 3.49219 13.0954 3.22813 13.15Z" fill="#FF5F00"/>
<path d="M5.02344 14.5938C4.65625 14.5001 3.90781 14.7501 3.69687 14.8751C3.48593 15.0001 3.25937 15.3438 3.14218 15.8516C3.025 16.3594 2.87656 17.2094 2.99375 17.2719C3.11093 17.3344 3.57187 17.1157 3.75937 16.6782C3.94687 16.2407 4.18906 15.7954 4.37656 15.6469C4.56406 15.4985 4.86875 15.436 5.14218 15.436H5.75156C5.75156 15.436 5.50156 14.9829 5.44687 14.8579C5.39062 14.7344 5.25312 14.6532 5.02344 14.5938Z" fill="#FF5F00"/>
<path d="M7.04534 10.9798C6.78752 10.6595 6.3344 10.9329 6.04534 11.3314C5.75627 11.7298 5.70159 11.9173 5.74846 12.6501C5.79534 13.3845 6.4594 13.4548 6.46721 12.9314C6.47502 12.4079 6.38127 12.2517 6.55315 12.0017C6.72502 11.7517 7.31252 11.3111 7.04534 10.9798ZM6.16252 14.0626C6.34065 14.2814 6.84221 14.2111 6.88127 13.8439C6.92034 13.4767 6.67815 13.3751 6.42034 13.3751C6.05159 13.3767 5.9594 13.8126 6.16252 14.0626Z" fill="#FF9003"/>
<path d="M14.9297 10.5376C14.9297 10.5376 15.0312 10.6266 15.1094 10.7907C15.1969 10.9751 15.2141 11.0641 15.2422 11.1032C15.2766 11.1516 16.5297 10.111 16.8891 10.0485C17.2484 9.986 18.1453 10.6266 18.5203 10.6891C18.8156 10.7376 19.0437 10.6735 18.8562 10.3688C18.6687 10.0641 17.5844 9.16725 17.1156 9.20632C16.5719 9.25163 15.0156 10.4751 14.9297 10.5376Z" fill="#FF5F00"/>
<path d="M15.3391 11.5999C15.3391 11.5999 17.4719 10.7843 17.9656 10.8858C18.536 11.003 19.0469 11.7796 19.2375 11.978C19.4516 12.1999 20.1438 12.9311 19.761 13.0702C19.1188 13.3061 17.95 11.8452 17.7547 11.7514C17.5594 11.6577 17.4422 11.7124 16.911 11.7983C16.3797 11.8843 15.2813 12.2124 15.2813 12.2124C15.2781 12.2139 15.311 11.978 15.3156 11.8811C15.3203 11.7874 15.3391 11.5999 15.3391 11.5999ZM15.2422 12.8452C15.1906 12.8968 15.1547 13.2296 15.1406 13.3061C15.1172 13.4311 15.086 13.6343 15.086 13.6343C15.086 13.6343 16.2172 13.6577 16.3266 13.7046C16.436 13.7514 16.7875 14.1139 17.0766 14.3686C17.2985 14.5624 17.9594 15.2046 17.9594 15.2046C17.9594 15.2046 18.4594 16.1968 18.7641 16.2046C19.0688 16.2124 19.0688 15.7905 18.9281 15.4077C18.7875 15.0249 18.5844 14.3764 18.5063 14.2999C18.4281 14.2218 18.1547 13.8311 17.8266 13.503C17.6656 13.3421 17.0766 12.8311 16.9203 12.8077C16.7641 12.7827 15.3516 12.7358 15.2422 12.8452ZM14.961 14.153C14.961 14.153 16.0453 14.3202 16.4438 14.6718C16.686 14.8858 16.9703 15.4952 17.0219 15.9983C17.0375 16.1561 17.1391 17.1139 16.8735 17.153C16.6078 17.1921 16.2453 16.6499 16.1438 16.3686C16.0422 16.0874 15.8594 15.5921 15.8594 15.5921C15.8594 15.5921 15.3547 15.2905 15.3281 15.2796C15.1406 15.2061 14.5625 15.1936 14.5625 15.1936C14.5625 15.1936 14.7563 14.8436 14.8203 14.6624C14.8985 14.4421 14.961 14.153 14.961 14.153ZM5.44533 4.12488C4.24377 4.88269 3.56721 6.95144 4.72658 7.80926C5.99064 8.74676 7.73283 7.38738 8.49689 6.35769C9.26096 5.32801 9.63596 4.79676 9.40314 4.47644C9.17033 4.15613 8.04533 5.14832 8.04533 5.14832C8.04533 5.14832 8.14689 5.49988 8.13127 5.90613C8.11564 6.31238 8.08439 6.69519 7.90471 6.69519C7.72502 6.69519 7.74064 6.09363 7.56877 5.57957C7.39689 5.06551 7.21721 5.00144 7.22502 4.79832C7.23283 4.59519 8.13908 4.08582 8.36877 3.95144C8.86408 3.65926 9.28283 3.40926 9.08283 3.29207C8.91877 3.19207 7.23439 2.99832 5.44533 4.12488Z" fill="#FF5F00"/>
<path d="M4.90624 6.96571C5.44999 6.90164 5.19843 6.35946 5.32031 5.91883C5.46874 5.37977 5.93749 5.08289 5.58593 4.77977C5.19999 4.44539 4.76562 5.09383 4.62499 5.79539C4.53906 6.22508 4.50781 7.01258 4.90624 6.96571Z" fill="#FF9003"/>
<path d="M12.4703 5.1155C12.4781 5.26394 12.0875 5.40457 11.9781 5.928C11.8687 6.45144 11.8609 6.88113 12.7515 7.55144C13.6422 8.22175 14.7656 8.82332 15.5234 7.94988C16.2812 7.07644 15.9297 5.31863 14.5078 4.18738C13.3531 3.26863 11.7515 3.01082 11.0734 3.24988C10.675 3.3905 11.3859 3.80457 11.8 4.21082C12.2859 4.68894 12.4625 4.96707 12.4703 5.1155Z" fill="#FF5F00"/>
<path d="M10.761 4.5656C10.6219 4.71247 10.7172 5.26091 10.9797 5.62029C11.1907 5.90935 11.6828 6.40935 11.6828 6.40935C11.6828 6.40935 11.5891 5.76091 11.6516 5.62029C11.7141 5.47966 11.6828 5.18279 11.6828 5.18279C11.6828 5.18279 11.4328 4.95622 11.2922 4.83904C11.1516 4.72185 10.8938 4.42497 10.761 4.5656Z" fill="#FF5F00"/>
<path d="M12.4391 5.70948C12.1578 5.75635 12.2484 6.20323 12.4391 6.6001C12.6344 7.00635 12.9547 7.18604 13.15 7.02198C13.3453 6.85792 13.1266 6.49854 13.0094 6.2876C12.8922 6.07667 12.7203 5.6626 12.4391 5.70948Z" fill="#FF9009"/>
<path d="M11.9906 8.34202C12.097 7.9847 11.9585 7.62821 11.6814 7.54577C11.4044 7.46333 11.0936 7.68615 10.9872 8.04346C10.8809 8.40077 11.0194 8.75726 11.2964 8.83971C11.5735 8.92215 11.8843 8.69933 11.9906 8.34202Z" fill="#322D2E"/>
<path d="M8.47356 8.86024C8.78604 8.82825 9.00857 8.50168 8.9706 8.13082C8.93263 7.75997 8.64853 7.48527 8.33606 7.51727C8.02358 7.54926 7.80105 7.87583 7.83902 8.24668C7.87699 8.61754 8.16108 8.89224 8.47356 8.86024Z" fill="#322D2E"/>
<path d="M12.1859 4.70306C12.0766 4.53118 11.7312 4.81087 11.5844 5.164C11.4125 5.57806 11.4125 6.14837 11.6391 6.38118C11.8656 6.614 11.6547 5.81868 11.8656 5.39681C12.0406 5.04681 12.2953 4.87337 12.1859 4.70306ZM7.49062 4.50775C7.36875 4.62962 7.54531 4.68743 7.64687 4.94525C7.74843 5.20306 7.83437 5.39837 7.88906 5.71868C7.93125 5.96556 7.89687 6.79212 8.06875 6.54993C8.24062 6.30775 8.275 5.289 8.04531 4.89837C7.84062 4.55462 7.62968 4.36712 7.49062 4.50775ZM12.8375 9.94056C12.8797 10.1109 13.4937 10.0421 13.8922 10.2609C14.2906 10.4796 14.5953 11.0265 14.5719 12.1499C14.5469 13.2749 14.2187 14.5218 14.1641 14.7031C14.0312 15.1484 13.5547 15.9281 13.4687 16.0374C13.3828 16.1468 13.1844 16.3921 13.5469 16.139C13.9453 15.8609 14.0937 15.639 14.0937 15.639C14.0937 15.639 14.8047 15.6624 14.8281 15.5218C14.8516 15.3812 14.25 15.3109 14.25 15.3109C14.25 15.3109 14.375 15.0687 14.4766 14.7562C14.5781 14.4437 14.6562 14.1546 14.6562 14.1546C14.6562 14.1546 14.8359 14.1577 15.2297 14.1156C15.6625 14.0687 16.2875 14.0531 16.3656 13.9281C16.4625 13.7734 15.7219 13.8031 15.3422 13.839C15.0328 13.8671 14.7094 13.8499 14.7094 13.8499C14.7094 13.8499 14.7641 13.5421 14.7953 13.3468C14.8266 13.1515 14.8453 12.9093 14.8453 12.9093C14.8453 12.9093 15.6141 12.7296 15.8562 12.6515C16.0984 12.5734 16.9187 12.3124 16.9109 12.1952C16.9047 12.1093 16.2781 12.2187 15.8375 12.3281C15.4594 12.4218 14.85 12.5546 14.85 12.5546C14.85 12.5546 14.8734 12.2031 14.8891 12.0234C14.9047 11.8437 14.8891 11.6406 14.8891 11.6406C14.8891 11.6406 15.1703 11.6718 15.3375 11.5984C15.5047 11.5249 15.7594 11.2484 15.9578 11.1109C16.1766 10.9593 16.7812 10.5327 16.7422 10.4312C16.6984 10.3171 15.9578 10.7515 15.7266 10.9109C15.5484 11.0343 15.2859 11.2577 15.1531 11.2812C15.0203 11.3046 14.8719 11.3202 14.8719 11.3202C14.8719 11.3202 14.7625 10.8593 14.7078 10.6874C14.6531 10.5156 14.4656 10.1562 14.1609 9.96868C13.8562 9.78118 12.7437 9.55775 12.8375 9.94056Z" fill="#A62616"/>
<path d="M5.74841 10.3313C5.26404 10.4954 4.96716 10.9954 4.9281 11.3235C4.88904 11.6516 4.91247 11.7766 4.91247 11.7766C4.91247 11.7766 4.38122 11.4016 4.1781 11.2298C4.03747 11.111 3.08904 10.3391 2.97966 10.5188C2.87029 10.6985 3.9281 11.4798 4.03747 11.5891C4.14685 11.6985 4.89685 12.222 4.89685 12.222L4.9906 12.722C4.9906 12.722 4.72966 12.8001 4.47185 12.8235C4.21404 12.847 3.15779 12.4141 3.12497 12.6954C3.11716 12.761 4.35935 13.1345 4.45154 13.1516C4.64997 13.1907 5.13904 13.1282 5.13904 13.1282C5.13904 13.1282 5.29529 13.6313 5.32654 13.7251C5.35779 13.8188 5.49372 14.1782 5.49372 14.1782C5.49372 14.1782 5.0531 14.1891 4.92029 14.1813C4.71404 14.1704 3.9031 14.0985 3.87341 14.2516C3.85466 14.3532 4.73279 14.4157 5.01247 14.4626C5.29372 14.5095 5.62185 14.5485 5.62185 14.5485C5.62185 14.5485 5.78122 14.9188 5.90622 15.1063C6.03122 15.2938 6.29997 15.6845 6.29997 15.6845C6.29997 15.6845 5.18904 15.4923 5.22966 15.6813C5.2531 15.786 6.54841 16.1266 6.54841 16.1266C6.54841 16.1266 7.83904 16.9641 8.01091 16.9251C8.18904 16.8845 7.5656 16.6204 7.05622 16.1032C6.72341 15.7641 6.20935 15.0876 5.88122 14.2923C5.74841 13.9704 5.22185 12.311 5.2531 11.747C5.28435 11.1766 5.51091 10.8641 5.85466 10.7079C6.19841 10.5516 7.39216 10.3954 7.14997 10.2079C6.91247 10.0188 6.05935 10.2266 5.74841 10.3313Z" fill="#A32916"/>
</svg>
